<svg xmlns="http://www.w3.org/2000/svg" width="254.493" height="17.896" viewBox="0 0 254.493 17.896"><g transform="translate(-167.711 -497.403)"><path d="M372.883,497.4h2.469l-.4,1.237-.4,1.237-1.052-.764-1.052-.764-1.052.764-1.052.764.4,1.236.4,1.237h-2.6l.4-1.237.4-1.236-1.052-.764-1.052-.764-1.052.764-1.052.764-.4-1.237-.4-1.237h8.546Z" fill="#061b2f"/><path d="M359.267,497.4h2.47l-.4,1.237-.4,1.236,1.052.764,1.052.764-1.244,1.116-1.663-.172.4-1.236.4-1.236-1.052-.764-1.052-.764-1.052.764-1.052.764.4,1.237.4,1.236h-2.6l.4-1.236.4-1.237-1.052-.764-1.052-.764-1.052.764-1.052.764-.4-1.237-.4-1.236h8.546Z" fill="#061b2f"/><path d="M332.9,502.349l1.663.172,1.244-1.116-1.052-.764-1.052-.764-.4,1.237Z" fill="#061b2f"/><path d="M345.651,497.4h2.47l-.4,1.236-.4,1.237-1.052-.764-1.052-.764-1.052.764-1.052.764.4,1.237.4,1.236h-2.6l.4-1.236.4-1.237-1.052-.764-1.052-.764-1.052.764-1.052.764-.4-1.237-.4-1.236h8.546Z" fill="#061b2f"/><path d="M339.575,515.3h-2.469l.4-1.237.4-1.237,1.052.764,1.052.764,1.052-.764,1.052-.764-.4-1.236-.4-1.237h2.6l-.4,1.237-.4,1.236,1.052.764,1.052.764,1.052-.764,1.052-.764.4,1.237.4,1.237h-8.546Z" fill="#061b2f"/><path d="M353.191,515.3h-2.47l.4-1.237.4-1.236-1.052-.764-1.052-.764,1.244-1.116,1.663.172-.4,1.236-.4,1.236,1.052.764,1.052.764,1.052-.764,1.052-.764-.4-1.237-.4-1.236h2.6l-.4,1.236-.4,1.237,1.052.764,1.052.764,1.052-.764,1.052-.764.4,1.237.4,1.236h-8.546Z" fill="#061b2f"/><path d="M366.806,515.3h-2.47l.4-1.236.4-1.237,1.052.764,1.052.764,1.052-.764,1.052-.764-.4-1.237-.4-1.236h2.6l-.4,1.236-.4,1.237,1.052.764,1.052.764,1.052-.764,1.052-.764.4,1.237.4,1.236h-8.546Z" fill="#061b2f"/><path d="M365.944,502.35l-.4-1.237-.4-1.236-1.052.764-1.052.764,1.258,1.074Z" fill="#061b2f"/><path d="M352.328,502.349l.449,1.563,1.348.91.4-1.237.4-1.237h-2.6l-.4-1.236-.4-1.237-1.052.764-1.052.764,1.258,1.074Z" fill="#061b2f"/><path d="M358.333,504.823l1.41-.865.387-1.608h-2.6l.4,1.237Z" fill="#061b2f"/><path d="M346.514,502.349l1.663.172,1.244-1.116-1.052-.764-1.052-.764-.4,1.237Z" fill="#061b2f"/><path d="M344.717,504.823l1.41-.865.387-1.608h-2.6l.4,1.237Z" fill="#061b2f"/><path d="M338.712,502.349l.448,1.563,1.348.91.4-1.237.4-1.237h-2.6Z" fill="#061b2f"/><path d="M376.653,501.4l1.258,1.074,1.649-.129-.4-1.237-.4-1.236-1.052.764Z" fill="#061b2f"/><path d="M338.712,502.349l-.4-1.236-.4-1.237-1.052.764-1.052.764,1.258,1.074Z" fill="#061b2f"/><path d="M379.56,502.35l.449,1.563,1.348.91.4-1.236.4-1.237h-2.6Z" fill="#061b2f"/><path d="M354.125,507.879l-1.41.865-.387,1.608h2.6l-.4-1.236Z" fill="#061b2f"/><path d="M352.328,510.353l-1.663-.172-1.244,1.116,1.052.764,1.052.764.4-1.237Z" fill="#061b2f"/><path d="M360.13,510.353l-.449-1.563-1.348-.91-.4,1.237-.4,1.236h2.6Z" fill="#061b2f"/><path d="M363.037,511.3l1.052.764,1.052.764.4-1.237.4-1.237-1.663-.172-1.245,1.116-1.258-1.074-1.649.129.4,1.237.4,1.237,1.052-.764Z" fill="#061b2f"/><path d="M338.712,510.353l-1.663-.172-1.245,1.116,1.052.764,1.052.764.4-1.237Z" fill="#061b2f"/><path d="M369.845,506.351l1.052.764,1.052.764.556-1.528-.556-1.528-1.052.764-1.052.764-1.052-.764-1.052-.764-.556,1.528.556,1.528,1.052-.764Z" fill="#061b2f"/><path d="M340.509,507.879l-1.41.865-.387,1.608h2.6l-.4-1.236Z" fill="#061b2f"/><path d="M344.717,507.879l.556-1.529-.556-1.528-1.052.764-1.052.764,1.052.764Z" fill="#061b2f"/><path d="M346.514,510.353l-.449-1.563-1.348-.91-.4,1.237-.4,1.236h2.6Z" fill="#061b2f"/><path d="M354.125,504.823l-.556,1.528.556,1.529,1.052-.764,1.052-.764-1.052-.764Z" fill="#061b2f"/><path d="M358.333,504.823l-1.052.764-1.052.764,1.052.764,1.052.764.556-1.529Z" fill="#061b2f"/><path d="M346.514,510.353l.4,1.237.4,1.237,1.052-.764,1.052-.764-1.258-1.074Z" fill="#061b2f"/><path d="M332.9,510.353l.4,1.237.4,1.237,1.052-.764,1.052-.764-1.258-1.074Z" fill="#061b2f"/><path d="M342.613,506.351l-1.052-.764-1.052-.764-.556,1.528.556,1.529,1.052-.764Z" fill="#061b2f"/><path d="M373.745,510.353l-.449-1.563-1.348-.91-.4,1.237-.4,1.236h2.6l.4,1.236.4,1.237,1.052-.764,1.052-.764-1.258-1.074Z" fill="#061b2f"/><path d="M368.545,510.353l-.4-1.236-.4-1.237-1.41.865-.387,1.608h2.6Z" fill="#061b2f"/><path d="M371.948,504.823l1.41-.865.387-1.608h-2.6l.4,1.237Z" fill="#061b2f"/><path d="M373.745,502.35l1.663.172,1.244-1.116-1.052-.764-1.052-.764-.4,1.236Z" fill="#061b2f"/><path d="M381.357,507.879l1.052-.764,1.052-.764-1.052-.764-1.052-.764-.556,1.528Z" fill="#061b2f"/><path d="M365.944,502.35l.449,1.563,1.348.91.4-1.236.4-1.237h-2.6Z" fill="#061b2f"/><path d="M381.357,507.879l-1.41.865-.387,1.608-1.663-.172-1.244,1.116,1.052.764,1.052.764.4-1.237.4-1.236h2.6l-.4-1.237Z" fill="#061b2f"/><path d="M371.948,507.879l-1.052-.764-1.052-.764-1.052.764-1.052.764.4,1.237.4,1.236h2.6l.4-1.236Z" fill="#f0a835"/><path d="M373.745,510.353h-2.6l-.4,1.237-.4,1.237,1.052.764,1.052.764,1.052-.764,1.052-.764-.4-1.237Z" fill="#f0a835"/><path d="M378.756,512.826l-1.052-.764-1.052-.764-1.052.764-1.052.764.4,1.237.4,1.237h2.6l.4-1.237Z" fill="#0076b4"/><path d="M379.56,510.353l-.4,1.236-.4,1.237,1.052.764,1.052.764,1.052-.764,1.052-.764-.4-1.237-.4-1.236h-2.6Z" fill="#f0a835"/><path d="M367.741,504.823l1.052.764,1.052.764,1.052-.764,1.052-.764-.4-1.236-.4-1.237h-2.6l-.4,1.237Z" fill="#f0a835"/><path d="M373.745,502.35l.4-1.237.4-1.236-1.052-.764-1.052-.764-1.052.764-1.052.764.4,1.236.4,1.237h2.6Z" fill="#f0a835"/><path d="M379.56,502.35h2.6l.4-1.237.4-1.236-1.052-.764-1.052-.764-1.052.764-1.052.764.4,1.236Z" fill="#f0a835"/><path d="M374.549,499.876l1.052.764,1.052.764,1.052-.764,1.052-.764-.4-1.237-.4-1.237h-2.6l-.4,1.237Z" fill="#0076b4"/><path d="M373.745,502.35l-.387,1.608-1.41.865.557,1.528-.557,1.528,1.349.91.448,1.564,1.649-.129,1.259,1.073,1.244-1.116,1.663.172.387-1.608,1.41-.866-.556-1.528.556-1.528-1.349-.91-.448-1.563-1.649.128-1.258-1.073-1.245,1.116Zm4.87,3.363a2.065,2.065,0,1,1-2.58-1.262A2.031,2.031,0,0,1,378.615,505.713Z" fill="#cc5a19"/><path d="M374.69,506.989a2.065,2.065,0,1,0,1.345-2.538A2.032,2.032,0,0,0,374.69,506.989Z" fill="#faf8dc"/><path d="M358.333,507.879l-1.052-.764-1.052-.764-1.052.764-1.052.764.4,1.237.4,1.236h2.6l.4-1.236Z" fill="#f0a835"/><path d="M360.13,510.353h-2.6l-.4,1.237-.4,1.237,1.052.764,1.052.764,1.052-.764,1.052-.764-.4-1.237Z" fill="#f0a835"/><path d="M365.141,512.826l-1.052-.764-1.052-.764-1.052.764-1.052.764.4,1.237.4,1.237h2.6l.4-1.237Z" fill="#0076b4"/><path d="M367.244,510.353h-1.3l-.4,1.237-.4,1.237,1.052.764,1.052.764,1.052-.764,1.052-.764-.4-1.237-.4-1.237h-1.3Z" fill="#f0a835"/><path d="M354.125,504.823l1.052.764,1.052.764,1.052-.764,1.052-.764-.4-1.237-.4-1.237h-2.6l-.4,1.237Z" fill="#f0a835"/><path d="M360.13,502.349l.4-1.236.4-1.236-1.052-.764-1.052-.764-1.052.764-1.052.764.4,1.237.4,1.236h2.6Z" fill="#f0a835"/><path d="M365.944,502.35h2.6l.4-1.237.4-1.236-1.052-.764-1.052-.764-1.052.764-1.052.764.4,1.236Z" fill="#f0a835"/><path d="M360.933,499.876l1.052.764,1.052.764,1.052-.764,1.052-.764-.4-1.237-.4-1.237h-2.6l-.4,1.237Z" fill="#0076b4"/><path d="M358.333,504.823l.556,1.528-.556,1.528,1.348.91.449,1.564,1.648-.129,1.259,1.073,1.244-1.116,1.663.172.387-1.609,1.41-.865-.556-1.528.556-1.528-1.348-.91-.449-1.563-1.649.128-1.258-1.073-1.245,1.116-1.662-.172-.387,1.609Zm6.667.89a2.065,2.065,0,1,1-2.581-1.262A2.032,2.032,0,0,1,365,505.713Z" fill="#fff"/><path d="M361.074,506.989a2.065,2.065,0,1,0,1.345-2.538A2.032,2.032,0,0,0,361.074,506.989Z" fill="#061b2f"/><path d="M344.717,507.879l-1.052-.764-1.052-.764-1.052.764-1.052.764.4,1.237.4,1.236h2.6l.4-1.236Z" fill="#f0a835"/><path d="M346.514,510.353h-2.6l-.4,1.237-.4,1.237,1.052.764,1.052.764,1.052-.764,1.052-.764-.4-1.237Z" fill="#f0a835"/><path d="M349.421,511.3l-1.052.764-1.052.764.4,1.237.4,1.237h2.6l.4-1.237.4-1.237-1.052-.764Z" fill="#0076b4"/><path d="M352.328,510.353l-.4,1.237-.4,1.237,1.052.764,1.052.764,1.052-.764,1.052-.764-.4-1.237-.4-1.237h-2.6Z" fill="#f0a835"/><path d="M340.509,504.823l1.052.764,1.052.764,1.052-.764,1.052-.764-.4-1.237-.4-1.237h-2.6l-.4,1.237Z" fill="#f0a835"/><path d="M346.514,502.349l.4-1.236.4-1.237-1.052-.764-1.052-.764-1.052.764-1.052.764.4,1.237.4,1.236h2.6Z" fill="#f0a835"/><path d="M352.328,502.349h2.6l.4-1.236.4-1.237-1.052-.764-1.052-.764-1.052.764-1.052.764.4,1.237Z" fill="#f0a835"/><path d="M347.317,499.876l1.052.764,1.052.764,1.052-.764,1.052-.764-.4-1.237-.4-1.236h-2.6l-.4,1.236Z" fill="#0076b4"/><path d="M346.514,502.349l-.387,1.608-1.41.866.556,1.528-.556,1.528,1.348.91.449,1.564,1.649-.129,1.258,1.073,1.244-1.116,1.663.172.387-1.609,1.41-.865-.556-1.528.556-1.528-1.348-.91-.449-1.564-1.649.129-1.258-1.073-1.245,1.116Zm4.87,3.364a2.065,2.065,0,1,1-2.58-1.262A2.032,2.032,0,0,1,351.384,505.713Z" fill="#0076b4"/><path d="M347.458,506.989a2.065,2.065,0,1,0,1.346-2.538A2.032,2.032,0,0,0,347.458,506.989Z" fill="#061b2f"/><path d="M337.909,512.826l-1.052-.764-1.052-.764-1.052.764-1.052.764.4,1.237.4,1.237h2.6l.4-1.237Z" fill="#0076b4"/><path d="M338.712,510.353l-.4,1.237-.4,1.237,1.052.764,1.052.764,1.052-.764,1.052-.764-.4-1.237-.4-1.237h-2.6Z" fill="#f0a835"/><path d="M338.712,502.349h2.6l.4-1.236.4-1.237-1.052-.764-1.052-.764-1.052.764-1.052.764.4,1.237Z" fill="#f0a835"/><path d="M333.7,499.876l1.052.764,1.052.764,1.052-.764,1.052-.764-.4-1.237-.4-1.236h-2.6l-.4,1.236Z" fill="#0076b4"/><path d="M332.9,502.349l-.387,1.608-1.41.866.556,1.528-.556,1.528,1.348.91.449,1.564,1.649-.129L335.8,511.3l1.245-1.116,1.662.172.388-1.609,1.409-.865-.556-1.528.556-1.528-1.348-.91-.449-1.564-1.649.129L335.8,501.4l-1.244,1.116Zm4.87,3.364a2.065,2.065,0,1,1-2.58-1.262A2.031,2.031,0,0,1,337.768,505.713Z" fill="#cc5a19"/><path d="M333.842,506.989a2.065,2.065,0,1,0,1.346-2.538A2.032,2.032,0,0,0,333.842,506.989Z" fill="#fff"/><path d="M336.857,512.061l1.052.764.4-1.237" fill="#061b2f"/><path d="M333.3,511.589l.4,1.237,1.052-.764" fill="#061b2f"/><path d="M334.753,512.061l-1.052.764.4,1.237.4,1.237h2.6l.4-1.237.4-1.237-1.052-.764" fill="#0076b4"/><path d="M338.311,511.589l-.4,1.237,1.052.764,1.052.764,1.052-.764,1.052-.764" fill="#f0a835"/><path d="M380.422,515.3h-2.469l.4-1.237.4-1.237,1.052.764,1.052.764,1.052-.764,1.052-.764-.4-1.236-.4-1.237h2.6l-.4,1.237-.4,1.236,1.052.764,1.052.764,1.052-.764,1.052-.764.4,1.237.4,1.237h-8.546Z" fill="#061b2f"/><path d="M394.038,515.3h-2.47l.4-1.237.4-1.236-1.052-.764-1.052-.764,1.244-1.116,1.663.172-.4,1.236-.4,1.236,1.052.764,1.052.764,1.052-.764,1.052-.764-.4-1.237-.4-1.236h2.6l-.4,1.236-.4,1.237,1.052.764,1.052.764,1.052-.764,1.052-.764.4,1.237.4,1.236h-8.546Z" fill="#061b2f"/><path d="M420.408,510.353l-1.663-.172L417.5,511.3l1.052.764,1.052.764.4-1.237Z" fill="#061b2f"/><path d="M407.654,515.3h-2.469l.4-1.236.4-1.237,1.052.764,1.052.764,1.052-.764,1.052-.764-.4-1.237-.4-1.236h2.6l-.4,1.236-.4,1.237,1.052.764,1.052.764,1.052-.764,1.052-.764.4,1.237.4,1.236h-8.546Z" fill="#061b2f"/><path d="M413.731,497.4H416.2l-.4,1.237-.4,1.237-1.052-.764-1.052-.764-1.052.764-1.052.764.4,1.236.4,1.237h-2.6l.4-1.237.4-1.236-1.052-.764-1.052-.764-1.052.764-1.052.764-.4-1.237-.4-1.237h8.546Z" fill="#061b2f"/><path d="M400.115,497.4h2.47l-.4,1.237-.4,1.236,1.052.764,1.052.764-1.244,1.116-1.663-.172.4-1.236.4-1.236-1.052-.764-1.052-.764-1.052.764-1.052.764.4,1.237.4,1.236h-2.6l.4-1.236.4-1.237-1.052-.764-1.052-.764-1.052.764-1.052.764-.4-1.237-.4-1.236h8.546Z" fill="#061b2f"/><path d="M386.5,497.4h2.47l-.4,1.236-.4,1.237-1.052-.764-1.052-.764-1.052.764-1.052.764.4,1.237.4,1.236h-2.6l.4-1.236.4-1.237-1.052-.764-1.052-.764-1.052.764-1.052.764-.4-1.237-.4-1.236H386.5Z" fill="#061b2f"/><path d="M387.361,510.353l.4,1.237.4,1.236,1.052-.764,1.052-.764-1.258-1.074Z" fill="#061b2f"/><path d="M400.977,510.353l-.449-1.563-1.348-.91-.4,1.237-.4,1.237h2.6l.4,1.236.4,1.237,1.052-.764,1.052-.764-1.258-1.074Z" fill="#061b2f"/><path d="M394.973,507.88l-1.41.865-.387,1.608h2.6l-.4-1.237Z" fill="#061b2f"/><path d="M406.792,510.353l-1.663-.172-1.245,1.116,1.052.764,1.052.764.4-1.237Z" fill="#061b2f"/><path d="M408.588,507.88l-1.41.865-.387,1.608h2.6l-.4-1.237Z" fill="#061b2f"/><path d="M414.593,510.353l-.448-1.563-1.348-.91-.4,1.237-.4,1.237h2.6Z" fill="#061b2f"/><path d="M414.593,510.353l.4,1.236.4,1.237,1.052-.764,1.052-.764-1.258-1.074Z" fill="#061b2f"/><path d="M399.18,504.823l1.41-.865.387-1.608h-2.6l.4,1.236Z" fill="#061b2f"/><path d="M400.977,502.35l1.663.172,1.244-1.116-1.052-.764-1.052-.764-.4,1.237Z" fill="#061b2f"/><path d="M393.176,502.35l.449,1.563,1.348.91.4-1.237.4-1.236h-2.6Z" fill="#061b2f"/><path d="M390.268,501.4l-1.052-.764-1.052-.764-.4,1.237-.4,1.237,1.663.172,1.245-1.116,1.258,1.074,1.649-.129-.4-1.237-.4-1.237-1.052.764Z" fill="#061b2f"/><path d="M414.593,502.35l1.663.172,1.245-1.116-1.052-.764-1.052-.764-.4,1.237Z" fill="#061b2f"/><path d="M383.461,506.351l-1.052-.764-1.052-.764-.556,1.528.556,1.528,1.052-.764,1.052-.764,1.052.764,1.052.764.556-1.528-.556-1.528-1.052.764Z" fill="#061b2f"/><path d="M412.8,504.823l1.41-.865.387-1.608h-2.6l.4,1.236Z" fill="#061b2f"/><path d="M408.588,504.823l-.556,1.529.556,1.528,1.052-.764,1.052-.764-1.052-.764Z" fill="#061b2f"/><path d="M406.792,502.35l.449,1.563,1.348.91.4-1.237.4-1.236h-2.6Z" fill="#061b2f"/><path d="M399.18,507.88l.556-1.528-.556-1.529-1.052.764-1.052.764,1.052.764Z" fill="#061b2f"/><path d="M394.973,507.88l1.052-.764,1.052-.764-1.052-.764-1.052-.764-.556,1.529Z" fill="#061b2f"/><path d="M406.792,502.35l-.4-1.237-.4-1.237-1.052.764-1.052.764,1.258,1.074Z" fill="#061b2f"/><path d="M420.407,502.35l-.4-1.237-.4-1.237-1.052.764-1.052.764,1.258,1.074Z" fill="#061b2f"/><path d="M410.692,506.351l1.052.764,1.052.764.556-1.528-.556-1.529-1.052.764Z" fill="#061b2f"/><path d="M384.761,502.35l.4,1.236.4,1.237,1.41-.865.387-1.608h-2.6Z" fill="#061b2f"/><path d="M381.357,507.88l-1.41.865-.387,1.608h2.6l-.4-1.237Z" fill="#061b2f"/><path d="M387.361,510.353l-.449-1.563-1.348-.91-.4,1.236-.4,1.237h2.6Z" fill="#061b2f"/><path d="M381.357,504.823l1.052.764,1.052.764,1.052-.764,1.052-.764-.4-1.237-.4-1.236h-2.6l-.4,1.236Z" fill="#f0a835"/><path d="M385.564,507.88l-1.052-.764-1.052-.764-1.052.764-1.052.764.4,1.236.4,1.237h2.6l.4-1.237Z" fill="#f0a835"/><path d="M394.973,504.823l1.052.764,1.052.764,1.052-.764,1.052-.764-.4-1.237-.4-1.236h-2.6l-.4,1.236Z" fill="#f0a835"/><path d="M393.176,502.35h2.6l.4-1.237.4-1.237-1.052-.764-1.052-.764-1.052.764-1.052.764.4,1.237Z" fill="#f0a835"/><path d="M388.165,499.877l1.052.764,1.052.764,1.052-.764,1.052-.764-.4-1.237-.4-1.237h-2.6l-.4,1.237Z" fill="#0076b4"/><path d="M386.061,502.35h1.3l.4-1.237.4-1.237-1.052-.764-1.052-.764-1.052.764-1.052.764.4,1.237.4,1.237h1.3Z" fill="#f0a835"/><path d="M399.18,507.88l-1.052-.764-1.052-.764-1.052.764-1.052.764.4,1.237.4,1.237h2.6l.4-1.237Z" fill="#f0a835"/><path d="M393.176,510.353l-.4,1.236-.4,1.236,1.052.764,1.052.764,1.052-.764,1.052-.764-.4-1.237-.4-1.236h-2.6Z" fill="#f0a835"/><path d="M387.361,510.353h-2.6l-.4,1.237-.4,1.236,1.052.764,1.052.764,1.052-.764,1.052-.764-.4-1.236Z" fill="#f0a835"/><path d="M392.372,512.826l-1.052-.764-1.052-.764-1.052.764-1.052.764.4,1.237.4,1.237h2.6l.4-1.237Z" fill="#0076b4"/><path d="M394.973,507.88l-.556-1.529.556-1.528-1.349-.91-.448-1.563-1.649.129-1.259-1.074-1.244,1.116-1.663-.171-.387,1.608-1.41.865.556,1.528-.556,1.529,1.349.91.448,1.563,1.649-.129,1.258,1.074,1.245-1.117,1.663.172.387-1.608Zm-6.667-.891a2.065,2.065,0,1,1,2.58,1.262A2.032,2.032,0,0,1,388.306,506.989Z" fill="#fff"/><path d="M392.231,505.713a2.065,2.065,0,1,0-1.345,2.538A2.032,2.032,0,0,0,392.231,505.713Z" fill="#061b2f"/><path d="M408.588,504.823l1.052.764,1.052.764,1.052-.764,1.052-.764-.4-1.237-.4-1.236h-2.6l-.4,1.236Z" fill="#f0a835"/><path d="M406.792,502.35h2.6l.4-1.237.4-1.237-1.052-.764-1.052-.764-1.052.764-1.052.764.4,1.237Z" fill="#f0a835"/><path d="M403.884,501.405l1.052-.764,1.052-.764-.4-1.237-.4-1.237h-2.6l-.4,1.237-.4,1.237,1.052.764Z" fill="#0076b4"/><path d="M400.977,502.35l.4-1.237.4-1.237-1.052-.764-1.052-.764-1.052.764-1.052.764.4,1.237.4,1.237h2.6Z" fill="#f0a835"/><path d="M412.8,507.88l-1.052-.764-1.052-.764-1.052.764-1.052.764.4,1.237.4,1.237h2.6l.4-1.237Z" fill="#f0a835"/><path d="M406.792,510.353l-.4,1.236-.4,1.237,1.052.764,1.052.764,1.052-.764,1.052-.764-.4-1.237-.4-1.236h-2.6Z" fill="#f0a835"/><path d="M400.977,510.353h-2.6l-.4,1.236-.4,1.237,1.052.764,1.052.764,1.052-.764,1.052-.764-.4-1.237Z" fill="#f0a835"/><path d="M405.988,512.826l-1.052-.764-1.052-.764-1.052.764-1.052.764.4,1.237.4,1.236h2.6l.4-1.236Z" fill="#0076b4"/><path d="M406.792,510.353l.387-1.608,1.409-.865-.556-1.529.556-1.528-1.348-.91-.448-1.563-1.649.129-1.259-1.074-1.244,1.116-1.663-.171-.387,1.608-1.41.865.556,1.528-.556,1.529,1.348.91.449,1.563,1.649-.129,1.258,1.074,1.245-1.117Zm-4.871-3.364a2.065,2.065,0,1,1,2.581,1.262A2.033,2.033,0,0,1,401.921,506.989Z" fill="#0076b4"/><path d="M405.847,505.713a2.065,2.065,0,1,0-1.345,2.538A2.032,2.032,0,0,0,405.847,505.713Z" fill="#061b2f"/><path d="M415.4,499.877l1.052.764,1.052.764,1.052-.764,1.052-.764-.4-1.237-.4-1.237h-2.6l-.4,1.237Z" fill="#0076b4"/><path d="M414.593,502.35l.4-1.237.4-1.237-1.052-.764-1.052-.764-1.052.764-1.052.764.4,1.237.4,1.237h2.6Z" fill="#f0a835"/><path d="M414.593,510.353h-2.6l-.4,1.236-.4,1.237,1.052.764,1.052.764,1.052-.764,1.052-.764-.4-1.237Z" fill="#f0a835"/><path d="M419.6,512.826l-1.052-.764L417.5,511.3l-1.052.764-1.052.764.4,1.237.4,1.236h2.6l.4-1.236Z" fill="#0076b4"/><path d="M420.408,510.353l.386-1.608,1.41-.865-.556-1.529.556-1.528-1.348-.91-.449-1.563-1.649.129L417.5,501.4l-1.244,1.116-1.663-.171-.387,1.608-1.41.865.556,1.528-.556,1.529,1.348.91.449,1.563,1.649-.129L417.5,511.3l1.245-1.117Zm-4.871-3.364a2.065,2.065,0,1,1,2.58,1.262A2.033,2.033,0,0,1,415.537,506.989Z" fill="#cc5a19"/><path d="M419.463,505.713a2.065,2.065,0,1,0-1.346,2.538A2.032,2.032,0,0,0,419.463,505.713Z" fill="#fff"/><path d="M416.448,500.641l-1.052-.764-.4,1.237" fill="#061b2f"/><path d="M420.006,501.113l-.4-1.237-1.052.764" fill="#061b2f"/><path d="M418.552,500.641l1.052-.764-.4-1.237-.4-1.237h-2.6l-.4,1.237-.4,1.237,1.052.764" fill="#0076b4"/><path d="M414.995,501.113l.4-1.237-1.052-.764-1.052-.764-1.052.764-1.052.764" fill="#f0a835"/><path d="M209.493,497.4h2.469l-.4,1.237-.4,1.237-1.052-.764-1.052-.764-1.052.764-1.052.764.4,1.236.4,1.237h-2.6l.4-1.237.4-1.236-1.052-.764-1.052-.764-1.052.764-1.052.764-.4-1.237-.4-1.237h8.546Z" fill="#061b2f"/><path d="M195.878,497.4h2.47l-.4,1.237-.4,1.236,1.052.764,1.052.764-1.244,1.116-1.663-.172.4-1.236.4-1.236-1.052-.764-1.052-.764-1.052.764-1.052.764.4,1.237.4,1.236h-2.6l.4-1.236.4-1.237-1.052-.764-1.052-.764-1.052.764-1.052.764-.4-1.237-.4-1.236h8.546Z" fill="#061b2f"/><path d="M169.508,502.349l1.663.172,1.244-1.116-1.052-.764-1.052-.764-.4,1.237Z" fill="#061b2f"/><path d="M182.262,497.4h2.469l-.4,1.236-.4,1.237-1.052-.764-1.052-.764-1.052.764-1.052.764.4,1.237.4,1.236h-2.6l.4-1.236.4-1.237-1.052-.764-1.052-.764-1.052.764-1.052.764-.4-1.237-.4-1.236h8.546Z" fill="#061b2f"/><path d="M176.185,515.3h-2.469l.4-1.237.4-1.237,1.052.764,1.052.764,1.052-.764,1.052-.764-.4-1.236-.4-1.237h2.6l-.4,1.237-.4,1.236,1.052.764,1.052.764,1.052-.764,1.052-.764.4,1.237.4,1.237h-8.546Z" fill="#061b2f"/><path d="M189.8,515.3h-2.47l.4-1.237.4-1.236-1.052-.764-1.052-.764,1.244-1.116,1.663.172-.4,1.236-.4,1.236,1.052.764,1.052.764,1.052-.764,1.052-.764-.4-1.237-.4-1.236h2.6l-.4,1.236-.4,1.237,1.052.764,1.052.764,1.052-.764,1.052-.764.4,1.237.4,1.236H189.8Z" fill="#061b2f"/><path d="M203.417,515.3h-2.469l.4-1.236.4-1.237,1.052.764,1.052.764,1.052-.764,1.052-.764-.4-1.237-.4-1.236h2.6l-.4,1.236-.4,1.237,1.052.764,1.052.764,1.052-.764,1.052-.764.4,1.237.4,1.236h-8.546Z" fill="#061b2f"/><path d="M202.555,502.35l-.4-1.237-.4-1.236-1.052.764-1.052.764,1.258,1.074Z" fill="#061b2f"/><path d="M188.939,502.349l.449,1.563,1.348.91.4-1.237.4-1.237h-2.6l-.4-1.236-.4-1.237-1.052.764-1.052.764,1.258,1.074Z" fill="#061b2f"/><path d="M194.943,504.823l1.41-.865.387-1.608h-2.6l.4,1.237Z" fill="#061b2f"/><path d="M183.124,502.349l1.663.172,1.245-1.116-1.052-.764-1.052-.764-.4,1.237Z" fill="#061b2f"/><path d="M181.327,504.823l1.41-.865.387-1.608h-2.6l.4,1.237Z" fill="#061b2f"/><path d="M175.323,502.349l.448,1.563,1.348.91.4-1.237.4-1.237h-2.6Z" fill="#061b2f"/><path d="M213.263,501.4l1.258,1.074,1.649-.129-.4-1.237-.4-1.236-1.052.764Z" fill="#061b2f"/><path d="M175.323,502.349l-.4-1.236-.4-1.237-1.052.764-1.052.764,1.258,1.074Z" fill="#061b2f"/><path d="M216.17,502.35l.449,1.563,1.348.91.4-1.236.4-1.237h-2.6Z" fill="#061b2f"/><path d="M190.736,507.879l-1.41.865-.387,1.608h2.6l-.4-1.236Z" fill="#061b2f"/><path d="M188.939,510.353l-1.663-.172-1.244,1.116,1.052.764,1.052.764.4-1.237Z" fill="#061b2f"/><path d="M196.74,510.353l-.449-1.563-1.348-.91-.4,1.237-.4,1.236h2.6Z" fill="#061b2f"/><path d="M199.647,511.3l1.052.764,1.052.764.4-1.237.4-1.237-1.663-.172-1.244,1.116-1.258-1.074-1.649.129.4,1.237.4,1.237,1.052-.764Z" fill="#061b2f"/><path d="M175.323,510.353l-1.663-.172-1.245,1.116,1.052.764,1.052.764.4-1.237Z" fill="#061b2f"/><path d="M206.455,506.351l1.052.764,1.052.764.556-1.528-.556-1.528-1.052.764-1.052.764-1.052-.764-1.052-.764-.556,1.528.556,1.528,1.052-.764Z" fill="#061b2f"/><path d="M177.12,507.879l-1.41.865-.387,1.608h2.6l-.4-1.236Z" fill="#061b2f"/><path d="M181.327,507.879l.556-1.529-.556-1.528-1.052.764-1.052.764,1.052.764Z" fill="#061b2f"/><path d="M183.124,510.353l-.449-1.563-1.348-.91-.4,1.237-.4,1.236h2.6Z" fill="#061b2f"/><path d="M190.736,504.823l-.556,1.528.556,1.529,1.052-.764,1.052-.764-1.052-.764Z" fill="#061b2f"/><path d="M194.943,504.823l-1.052.764-1.052.764,1.052.764,1.052.764.556-1.529Z" fill="#061b2f"/><path d="M183.124,510.353l.4,1.237.4,1.237,1.052-.764,1.052-.764-1.258-1.074Z" fill="#061b2f"/><path d="M169.508,510.353l.4,1.237.4,1.237,1.052-.764,1.052-.764-1.258-1.074Z" fill="#061b2f"/><path d="M179.223,506.351l-1.052-.764-1.052-.764-.556,1.528.556,1.529,1.052-.764Z" fill="#061b2f"/><path d="M210.356,510.353l-.449-1.563-1.348-.91-.4,1.237-.4,1.236h2.6l.4,1.236.4,1.237,1.052-.764,1.052-.764L212,510.224Z" fill="#061b2f"/><path d="M205.155,510.353l-.4-1.236-.4-1.237-1.41.865-.387,1.608h2.6Z" fill="#061b2f"/><path d="M208.559,504.823l1.41-.865.387-1.608h-2.6l.4,1.237Z" fill="#061b2f"/><path d="M210.356,502.35l1.663.172,1.244-1.116-1.052-.764-1.052-.764-.4,1.236Z" fill="#061b2f"/><path d="M217.967,507.879l1.052-.764,1.052-.764-1.052-.764-1.052-.764-.556,1.528Z" fill="#061b2f"/><path d="M202.555,502.35l.449,1.563,1.348.91.4-1.236.4-1.237h-2.6Z" fill="#061b2f"/><path d="M217.967,507.879l-1.41.865-.387,1.608-1.663-.172-1.244,1.116,1.052.764,1.052.764.4-1.237.4-1.236h2.6l-.4-1.237Z" fill="#061b2f"/><path d="M208.559,507.879l-1.052-.764-1.052-.764-1.052.764-1.052.764.4,1.237.4,1.236h2.6l.4-1.236Z" fill="#f0a835"/><path d="M210.356,510.353h-2.6l-.4,1.237-.4,1.237,1.052.764,1.052.764,1.052-.764,1.052-.764-.4-1.237Z" fill="#f0a835"/><path d="M215.367,512.826l-1.052-.764-1.052-.764-1.052.764-1.052.764.4,1.237.4,1.237h2.6l.4-1.237Z" fill="#0076b4"/><path d="M216.17,510.353l-.4,1.236-.4,1.237,1.052.764,1.052.764,1.052-.764,1.052-.764-.4-1.237-.4-1.236h-2.6Z" fill="#f0a835"/><path d="M204.351,504.823l1.052.764,1.052.764,1.052-.764,1.052-.764-.4-1.236-.4-1.237h-2.6l-.4,1.237Z" fill="#f0a835"/><path d="M210.356,502.35l.4-1.237.4-1.236-1.052-.764-1.052-.764-1.052.764-1.052.764.4,1.236.4,1.237h2.6Z" fill="#f0a835"/><path d="M216.17,502.35h2.6l.4-1.237.4-1.236-1.052-.764-1.052-.764-1.052.764-1.052.764.4,1.236Z" fill="#f0a835"/><path d="M211.159,499.876l1.052.764,1.052.764,1.052-.764,1.052-.764-.4-1.237-.4-1.237h-2.6l-.4,1.237Z" fill="#0076b4"/><path d="M210.356,502.35l-.387,1.608-1.41.865.556,1.528-.556,1.528,1.348.91.449,1.564,1.649-.129,1.258,1.073,1.244-1.116,1.663.172.387-1.608,1.41-.866-.556-1.528.556-1.528-1.348-.91-.449-1.563-1.649.128-1.258-1.073-1.244,1.116Zm4.87,3.363a2.065,2.065,0,1,1-2.58-1.262A2.032,2.032,0,0,1,215.226,505.713Z" fill="#cc5a19"/><path d="M211.3,506.989a2.065,2.065,0,1,0,1.346-2.538A2.032,2.032,0,0,0,211.3,506.989Z" fill="#faf8dc"/><path d="M194.943,507.879l-1.052-.764-1.052-.764-1.052.764-1.052.764.4,1.237.4,1.236h2.6l.4-1.236Z" fill="#f0a835"/><path d="M196.74,510.353h-2.6l-.4,1.237-.4,1.237,1.052.764,1.052.764,1.052-.764,1.052-.764-.4-1.237Z" fill="#f0a835"/><path d="M201.751,512.826l-1.052-.764-1.052-.764-1.052.764-1.052.764.4,1.237.4,1.237h2.6l.4-1.237Z" fill="#0076b4"/><path d="M203.855,510.353h-1.3l-.4,1.237-.4,1.237,1.052.764,1.052.764,1.052-.764,1.052-.764-.4-1.237-.4-1.237h-1.3Z" fill="#f0a835"/><path d="M190.736,504.823l1.052.764,1.052.764,1.052-.764,1.052-.764-.4-1.237-.4-1.237h-2.6l-.4,1.237Z" fill="#f0a835"/><path d="M196.74,502.349l.4-1.236.4-1.236-1.052-.764-1.052-.764-1.052.764-1.052.764.4,1.237.4,1.236h2.6Z" fill="#f0a835"/><path d="M202.555,502.35h2.6l.4-1.237.4-1.236-1.052-.764-1.052-.764-1.052.764-1.052.764.4,1.236Z" fill="#f0a835"/><path d="M197.544,499.876l1.052.764,1.052.764,1.052-.764,1.052-.764-.4-1.237-.4-1.237h-2.6l-.4,1.237Z" fill="#0076b4"/><path d="M194.943,504.823l.556,1.528-.556,1.528,1.348.91.449,1.564,1.649-.129,1.258,1.073,1.245-1.116,1.663.172.386-1.609,1.41-.865-.556-1.528.556-1.528-1.348-.91-.448-1.563-1.65.128-1.258-1.073-1.244,1.116-1.663-.172-.387,1.609Zm6.667.89a2.065,2.065,0,1,1-2.58-1.262A2.031,2.031,0,0,1,201.61,505.713Z" fill="#fff"/><path d="M197.684,506.989a2.065,2.065,0,1,0,1.346-2.538A2.032,2.032,0,0,0,197.684,506.989Z" fill="#061b2f"/><path d="M181.327,507.879l-1.052-.764-1.052-.764-1.052.764-1.052.764.4,1.237.4,1.236h2.6l.4-1.236Z" fill="#f0a835"/><path d="M183.124,510.353h-2.6l-.4,1.237-.4,1.237,1.052.764,1.052.764,1.052-.764,1.052-.764-.4-1.237Z" fill="#f0a835"/><path d="M186.031,511.3l-1.052.764-1.052.764.4,1.237.4,1.237h2.6l.4-1.237.4-1.237-1.052-.764Z" fill="#0076b4"/><path d="M188.939,510.353l-.4,1.237-.4,1.237,1.052.764,1.052.764,1.052-.764,1.052-.764-.4-1.237-.4-1.237h-2.6Z" fill="#f0a835"/><path d="M177.12,504.823l1.052.764,1.052.764,1.052-.764,1.052-.764-.4-1.237-.4-1.237h-2.6l-.4,1.237Z" fill="#f0a835"/><path d="M183.124,502.349l.4-1.236.4-1.237-1.052-.764-1.052-.764-1.052.764-1.052.764.4,1.237.4,1.236h2.6Z" fill="#f0a835"/><path d="M188.939,502.349h2.6l.4-1.236.4-1.237-1.052-.764-1.052-.764-1.052.764-1.052.764.4,1.237Z" fill="#f0a835"/><path d="M183.928,499.876l1.052.764,1.052.764,1.052-.764,1.052-.764-.4-1.237-.4-1.236h-2.6l-.4,1.236Z" fill="#0076b4"/><path d="M183.124,502.349l-.387,1.608-1.41.866.556,1.528-.556,1.528,1.348.91.449,1.564,1.649-.129,1.258,1.073,1.245-1.116,1.663.172.387-1.609,1.41-.865-.556-1.528.556-1.528-1.349-.91-.448-1.564-1.649.129-1.259-1.073-1.244,1.116Zm4.87,3.364a2.065,2.065,0,1,1-2.58-1.262A2.031,2.031,0,0,1,187.994,505.713Z" fill="#0076b4"/><path d="M184.069,506.989a2.065,2.065,0,1,0,1.345-2.538A2.032,2.032,0,0,0,184.069,506.989Z" fill="#061b2f"/><path d="M174.519,512.826l-1.052-.764-1.052-.764-1.052.764-1.052.764.4,1.237.4,1.237h2.6l.4-1.237Z" fill="#0076b4"/><path d="M175.323,510.353l-.4,1.237-.4,1.237,1.052.764,1.052.764,1.052-.764,1.052-.764-.4-1.237-.4-1.237h-2.6Z" fill="#f0a835"/><path d="M175.323,502.349h2.6l.4-1.236.4-1.237-1.052-.764-1.052-.764-1.052.764-1.052.764.4,1.237Z" fill="#f0a835"/><path d="M170.312,499.876l1.052.764,1.052.764,1.052-.764,1.052-.764-.4-1.237-.4-1.236h-2.6l-.4,1.236Z" fill="#0076b4"/><path d="M169.508,502.349l-.387,1.608-1.41.866.556,1.528-.556,1.528,1.349.91.448,1.564,1.649-.129,1.258,1.073,1.245-1.116,1.663.172.387-1.609,1.41-.865-.556-1.528.556-1.528-1.349-.91-.448-1.564-1.649.129-1.259-1.073-1.244,1.116Zm4.87,3.364a2.065,2.065,0,1,1-2.58-1.262A2.031,2.031,0,0,1,174.378,505.713Z" fill="#cc5a19"/><path d="M170.453,506.989a2.065,2.065,0,1,0,1.345-2.538A2.032,2.032,0,0,0,170.453,506.989Z" fill="#fff"/><path d="M173.468,512.061l1.052.764.4-1.237" fill="#061b2f"/><path d="M169.91,511.589l.4,1.237,1.052-.764" fill="#061b2f"/><path d="M171.364,512.061l-1.052.764.4,1.237.4,1.237h2.6l.4-1.237.4-1.237-1.052-.764" fill="#0076b4"/><path d="M174.921,511.589l-.4,1.237,1.052.764,1.052.764,1.052-.764,1.052-.764" fill="#f0a835"/><path d="M217.033,515.3h-2.469l.4-1.237.4-1.237,1.052.764,1.052.764,1.052-.764,1.052-.764-.4-1.236-.4-1.237h2.6l-.4,1.237-.4,1.236,1.052.764,1.052.764,1.052-.764,1.052-.764.4,1.237.4,1.237h-8.546Z" fill="#061b2f"/><path d="M230.649,515.3h-2.47l.4-1.237.4-1.236-1.052-.764-1.052-.764,1.244-1.116,1.663.172-.4,1.236-.4,1.236,1.052.764,1.052.764,1.052-.764,1.052-.764-.4-1.237-.4-1.236h2.6l-.4,1.236-.4,1.237,1.052.764,1.052.764,1.052-.764,1.052-.764.4,1.237.4,1.236h-8.546Z" fill="#061b2f"/><path d="M257.018,510.353l-1.663-.172-1.244,1.116,1.052.764,1.052.764.4-1.237Z" fill="#061b2f"/><path d="M244.264,515.3h-2.469l.4-1.236.4-1.237,1.052.764,1.052.764,1.052-.764,1.052-.764-.4-1.237-.4-1.236h2.6l-.4,1.236-.4,1.237,1.052.764,1.052.764,1.052-.764,1.052-.764.4,1.237.4,1.236h-8.546Z" fill="#061b2f"/><path d="M250.341,497.4h2.469l-.4,1.237-.4,1.237-1.052-.764-1.052-.764-1.052.764-1.052.764.4,1.236.4,1.237H246l.4-1.237.4-1.236-1.052-.764-1.052-.764-1.052.764-1.052.764-.4-1.237-.4-1.237h8.546Z" fill="#061b2f"/><path d="M236.725,497.4h2.47l-.4,1.237-.4,1.236,1.052.764,1.052.764-1.244,1.116-1.663-.172.4-1.236.4-1.236-1.052-.764-1.052-.764-1.052.764-1.052.764.4,1.237.4,1.236h-2.6l.4-1.236.4-1.237-1.052-.764-1.052-.764-1.052.764-1.052.764-.4-1.237-.4-1.236h8.546Z" fill="#061b2f"/><path d="M223.109,497.4h2.469l-.4,1.236-.4,1.237-1.052-.764-1.052-.764-1.052.764-1.052.764.4,1.237.4,1.236h-2.6l.4-1.236.4-1.237-1.052-.764-1.052-.764-1.052.764-1.052.764-.4-1.237-.4-1.236h8.546Z" fill="#061b2f"/><path d="M223.971,510.353l.4,1.237.4,1.236,1.052-.764,1.052-.764-1.258-1.074Z" fill="#061b2f"/><path d="M237.587,510.353l-.449-1.563-1.348-.91-.4,1.237-.4,1.237h2.6l.4,1.236.4,1.237,1.052-.764,1.052-.764-1.258-1.074Z" fill="#061b2f"/><path d="M231.583,507.88l-1.41.865-.387,1.608h2.6l-.4-1.237Z" fill="#061b2f"/><path d="M243.4,510.353l-1.663-.172-1.244,1.116,1.052.764,1.052.764.4-1.237Z" fill="#061b2f"/><path d="M245.2,507.88l-1.41.865-.387,1.608H246l-.4-1.237Z" fill="#061b2f"/><path d="M251.2,510.353l-.448-1.563-1.348-.91-.4,1.237-.4,1.237h2.6Z" fill="#061b2f"/><path d="M251.2,510.353l.4,1.236.4,1.237,1.052-.764,1.052-.764-1.258-1.074Z" fill="#061b2f"/><path d="M235.79,504.823l1.41-.865.387-1.608h-2.6l.4,1.236Z" fill="#061b2f"/><path d="M237.587,502.35l1.663.172,1.244-1.116-1.052-.764-1.052-.764-.4,1.237Z" fill="#061b2f"/><path d="M229.786,502.35l.449,1.563,1.348.91.4-1.237.4-1.236h-2.6Z" fill="#061b2f"/><path d="M226.879,501.4l-1.052-.764-1.052-.764-.4,1.237-.4,1.237,1.663.172,1.245-1.116,1.258,1.074,1.649-.129-.4-1.237-.4-1.237-1.052.764Z" fill="#061b2f"/><path d="M251.2,502.35l1.663.172,1.245-1.116-1.052-.764-1.052-.764-.4,1.237Z" fill="#061b2f"/><path d="M220.071,506.351l-1.052-.764-1.052-.764-.556,1.528.556,1.528,1.052-.764,1.052-.764,1.052.764,1.052.764.556-1.528-.556-1.528-1.052.764Z" fill="#061b2f"/><path d="M249.406,504.823l1.41-.865.387-1.608h-2.6l.4,1.236Z" fill="#061b2f"/><path d="M245.2,504.823l-.556,1.529.556,1.528,1.052-.764,1.052-.764-1.052-.764Z" fill="#061b2f"/><path d="M243.4,502.35l.449,1.563,1.348.91.4-1.237.4-1.236h-2.6Z" fill="#061b2f"/><path d="M235.79,507.88l.556-1.528-.556-1.529-1.052.764-1.052.764,1.052.764Z" fill="#061b2f"/><path d="M231.583,507.88l1.052-.764,1.052-.764-1.052-.764-1.052-.764-.556,1.529Z" fill="#061b2f"/><path d="M243.4,502.35l-.4-1.237-.4-1.237-1.052.764-1.052.764,1.258,1.074Z" fill="#061b2f"/><path d="M257.018,502.35l-.4-1.237-.4-1.237-1.052.764-1.052.764,1.258,1.074Z" fill="#061b2f"/><path d="M247.3,506.351l1.052.764,1.052.764.556-1.528-.556-1.529-1.052.764Z" fill="#061b2f"/><path d="M221.371,502.35l.4,1.236.4,1.237,1.41-.865.387-1.608h-2.6Z" fill="#061b2f"/><path d="M217.967,507.88l-1.41.865-.387,1.608h2.6l-.4-1.237Z" fill="#061b2f"/><path d="M223.971,510.353l-.449-1.563-1.348-.91-.4,1.236-.4,1.237h2.6Z" fill="#061b2f"/><path d="M217.967,504.823l1.052.764,1.052.764,1.052-.764,1.052-.764-.4-1.237-.4-1.236h-2.6l-.4,1.236Z" fill="#f0a835"/><path d="M222.175,507.88l-1.052-.764-1.052-.764-1.052.764-1.052.764.4,1.236.4,1.237h2.6l.4-1.237Z" fill="#f0a835"/><path d="M231.583,504.823l1.052.764,1.052.764,1.052-.764,1.052-.764-.4-1.237-.4-1.236h-2.6l-.4,1.236Z" fill="#f0a835"/><path d="M229.786,502.35h2.6l.4-1.237.4-1.237-1.052-.764-1.052-.764-1.052.764-1.052.764.4,1.237Z" fill="#f0a835"/><path d="M224.775,499.877l1.052.764,1.052.764,1.052-.764,1.052-.764-.4-1.237-.4-1.237h-2.6l-.4,1.237Z" fill="#0076b4"/><path d="M222.671,502.35h1.3l.4-1.237.4-1.237-1.052-.764-1.052-.764-1.052.764-1.052.764.4,1.237.4,1.237h1.3Z" fill="#f0a835"/><path d="M235.79,507.88l-1.052-.764-1.052-.764-1.052.764-1.052.764.4,1.237.4,1.237h2.6l.4-1.237Z" fill="#f0a835"/><path d="M229.786,510.353l-.4,1.236-.4,1.236,1.052.764,1.052.764,1.052-.764,1.052-.764-.4-1.237-.4-1.236h-2.6Z" fill="#f0a835"/><path d="M223.971,510.353h-2.6l-.4,1.237-.4,1.236,1.052.764,1.052.764,1.052-.764,1.052-.764-.4-1.236Z" fill="#f0a835"/><path d="M228.983,512.826l-1.052-.764-1.052-.764-1.052.764-1.052.764.4,1.237.4,1.237h2.6l.4-1.237Z" fill="#0076b4"/><path d="M231.583,507.88l-.556-1.529.556-1.528-1.348-.91-.449-1.563-1.649.129-1.258-1.074-1.245,1.116-1.662-.171-.387,1.608-1.41.865.556,1.528-.556,1.529,1.348.91.449,1.563,1.649-.129,1.258,1.074,1.244-1.117,1.663.172.387-1.608Zm-6.667-.891a2.065,2.065,0,1,1,2.58,1.262A2.032,2.032,0,0,1,224.916,506.989Z" fill="#fff"/><path d="M228.842,505.713a2.065,2.065,0,1,0-1.346,2.538A2.032,2.032,0,0,0,228.842,505.713Z" fill="#061b2f"/><path d="M245.2,504.823l1.052.764,1.052.764,1.052-.764,1.052-.764-.4-1.237-.4-1.236H246l-.4,1.236Z" fill="#f0a835"/><path d="M243.4,502.35H246l.4-1.237.4-1.237-1.052-.764-1.052-.764-1.052.764-1.052.764.4,1.237Z" fill="#f0a835"/><path d="M240.495,501.405l1.052-.764,1.052-.764-.4-1.237-.4-1.237h-2.6l-.4,1.237-.4,1.237,1.052.764Z" fill="#0076b4"/><path d="M237.587,502.35l.4-1.237.4-1.237-1.052-.764-1.052-.764-1.052.764-1.052.764.4,1.237.4,1.237h2.6Z" fill="#f0a835"/><path d="M249.406,507.88l-1.052-.764-1.052-.764-1.052.764-1.052.764.4,1.237.4,1.237h2.6l.4-1.237Z" fill="#f0a835"/><path d="M243.4,510.353l-.4,1.236-.4,1.237,1.052.764,1.052.764,1.052-.764,1.052-.764-.4-1.237-.4-1.236h-2.6Z" fill="#f0a835"/><path d="M237.587,510.353h-2.6l-.4,1.236-.4,1.237,1.052.764,1.052.764,1.052-.764,1.052-.764-.4-1.237Z" fill="#f0a835"/><path d="M242.6,512.826l-1.052-.764-1.052-.764-1.052.764-1.052.764.4,1.237.4,1.236h2.6l.4-1.236Z" fill="#0076b4"/><path d="M243.4,510.353l.387-1.608,1.41-.865-.556-1.529.556-1.528-1.348-.91-.449-1.563-1.649.129-1.258-1.074-1.245,1.116-1.663-.171-.387,1.608-1.41.865.557,1.528-.557,1.529,1.349.91.448,1.563,1.649-.129,1.259,1.074,1.244-1.117Zm-4.87-3.364a2.065,2.065,0,1,1,2.58,1.262A2.032,2.032,0,0,1,238.532,506.989Z" fill="#0076b4"/><path d="M242.458,505.713a2.065,2.065,0,1,0-1.346,2.538A2.033,2.033,0,0,0,242.458,505.713Z" fill="#061b2f"/><path d="M252.007,499.877l1.052.764,1.052.764,1.052-.764,1.052-.764-.4-1.237-.4-1.237h-2.6l-.4,1.237Z" fill="#0076b4"/><path d="M251.2,502.35l.4-1.237.4-1.237-1.052-.764-1.052-.764-1.052.764-1.052.764.4,1.237.4,1.237h2.6Z" fill="#f0a835"/><path d="M251.2,510.353h-2.6l-.4,1.236-.4,1.237,1.052.764,1.052.764,1.052-.764,1.052-.764-.4-1.237Z" fill="#f0a835"/><path d="M256.214,512.826l-1.052-.764-1.052-.764-1.052.764-1.052.764.4,1.237.4,1.236h2.6l.4-1.236Z" fill="#0076b4"/><path d="M257.018,510.353l.387-1.608,1.41-.865-.556-1.529.556-1.528-1.349-.91-.448-1.563-1.649.129-1.258-1.074-1.245,1.116-1.663-.171-.387,1.608-1.41.865.556,1.528-.556,1.529,1.349.91.448,1.563,1.649-.129,1.259,1.074,1.244-1.117Zm-4.87-3.364a2.065,2.065,0,1,1,2.58,1.262A2.032,2.032,0,0,1,252.148,506.989Z" fill="#cc5a19"/><path d="M256.073,505.713a2.065,2.065,0,1,0-1.345,2.538A2.032,2.032,0,0,0,256.073,505.713Z" fill="#fff"/><path d="M253.059,500.641l-1.052-.764-.4,1.237" fill="#061b2f"/><path d="M256.616,501.113l-.4-1.237-1.052.764" fill="#061b2f"/><path d="M255.162,500.641l1.052-.764-.4-1.237-.4-1.237h-2.6l-.4,1.237-.4,1.237,1.052.764" fill="#0076b4"/><path d="M251.605,501.113l.4-1.237-1.052-.764-1.052-.764-1.052.764-1.052.764" fill="#f0a835"/><path d="M291.188,497.4h2.469l-.4,1.237-.4,1.237-1.052-.764-1.052-.764-1.052.764-1.052.764.4,1.236.4,1.237h-2.6l.4-1.237.4-1.236-1.052-.764-1.052-.764-1.052.764-1.052.764-.4-1.237-.4-1.237h8.546Z" fill="#061b2f"/><path d="M277.572,497.4h2.47l-.4,1.237-.4,1.236,1.052.764,1.052.764-1.244,1.116-1.663-.172.4-1.236.4-1.236-1.052-.764-1.052-.764-1.052.764-1.052.764.4,1.237.4,1.236h-2.6l.4-1.236.4-1.237-1.052-.764-1.052-.764-1.052.764-1.052.764-.4-1.237-.4-1.236h8.546Z" fill="#061b2f"/><path d="M251.2,502.349l1.663.172,1.244-1.116-1.052-.764-1.052-.764-.4,1.237Z" fill="#061b2f"/><path d="M263.957,497.4h2.469l-.4,1.236-.4,1.237-1.052-.764-1.052-.764-1.052.764-1.052.764.4,1.237.4,1.236h-2.6l.4-1.236.4-1.237-1.052-.764-1.052-.764-1.052.764-1.052.764-.4-1.237-.4-1.236h8.546Z" fill="#061b2f"/><path d="M257.88,515.3H255.41l.4-1.237.4-1.237,1.052.764,1.052.764,1.052-.764,1.052-.764-.4-1.236-.4-1.237h2.6l-.4,1.237-.4,1.236,1.052.764,1.052.764,1.052-.764,1.052-.764.4,1.237.4,1.237H257.88Z" fill="#061b2f"/><path d="M271.5,515.3h-2.47l.4-1.237.4-1.236-1.052-.764-1.052-.764,1.244-1.116,1.663.172-.4,1.236-.4,1.236,1.052.764,1.052.764,1.052-.764,1.052-.764-.4-1.237-.4-1.236h2.6l-.4,1.236-.4,1.237,1.052.764,1.052.764,1.052-.764,1.052-.764.4,1.237.4,1.236H271.5Z" fill="#061b2f"/><path d="M285.112,515.3h-2.47l.4-1.236.4-1.237,1.052.764,1.052.764,1.052-.764,1.052-.764-.4-1.237-.4-1.236h2.6l-.4,1.236-.4,1.237,1.052.764,1.052.764,1.052-.764,1.052-.764.4,1.237.4,1.236h-8.546Z" fill="#061b2f"/><path d="M284.249,502.35l-.4-1.237-.4-1.236-1.052.764-1.052.764,1.258,1.074Z" fill="#061b2f"/><path d="M270.633,502.349l.449,1.563,1.348.91.4-1.237.4-1.237h-2.6l-.4-1.236-.4-1.237-1.052.764-1.052.764,1.258,1.074Z" fill="#061b2f"/><path d="M276.638,504.823l1.41-.865.387-1.608h-2.6l.4,1.237Z" fill="#061b2f"/><path d="M264.819,502.349l1.663.172,1.245-1.116-1.052-.764-1.052-.764-.4,1.237Z" fill="#061b2f"/><path d="M263.022,504.823l1.41-.865.387-1.608h-2.6l.4,1.237Z" fill="#061b2f"/><path d="M257.018,502.349l.448,1.563,1.348.91.4-1.237.4-1.237h-2.6Z" fill="#061b2f"/><path d="M294.958,501.4l1.258,1.074,1.649-.129-.4-1.237-.4-1.236-1.052.764Z" fill="#061b2f"/><path d="M257.018,502.349l-.4-1.236-.4-1.237-1.052.764-1.052.764,1.258,1.074Z" fill="#061b2f"/><path d="M297.865,502.35l.449,1.563,1.348.91.4-1.236.4-1.237h-2.6Z" fill="#061b2f"/><path d="M272.43,507.879l-1.41.865-.387,1.608h2.6l-.4-1.236Z" fill="#061b2f"/><path d="M270.634,510.353l-1.663-.172-1.244,1.116,1.052.764,1.052.764.4-1.237Z" fill="#061b2f"/><path d="M278.435,510.353l-.449-1.563-1.348-.91-.4,1.237-.4,1.236h2.6Z" fill="#061b2f"/><path d="M281.342,511.3l1.052.764,1.052.764.4-1.237.4-1.237-1.663-.172-1.245,1.116-1.258-1.074-1.649.129.4,1.237.4,1.237,1.052-.764Z" fill="#061b2f"/><path d="M257.018,510.353l-1.663-.172L254.11,511.3l1.052.764,1.052.764.4-1.237Z" fill="#061b2f"/><path d="M288.15,506.351l1.052.764,1.052.764.556-1.528-.556-1.528-1.052.764-1.052.764-1.052-.764-1.052-.764-.556,1.528.556,1.528,1.052-.764Z" fill="#061b2f"/><path d="M258.815,507.879l-1.41.865-.387,1.608h2.6l-.4-1.236Z" fill="#061b2f"/><path d="M263.022,507.879l.556-1.529-.556-1.528-1.052.764-1.052.764,1.052.764Z" fill="#061b2f"/><path d="M264.819,510.353l-.449-1.563-1.348-.91-.4,1.237-.4,1.236h2.6Z" fill="#061b2f"/><path d="M272.43,504.823l-.556,1.528.556,1.529,1.052-.764,1.052-.764-1.052-.764Z" fill="#061b2f"/><path d="M276.638,504.823l-1.052.764-1.052.764,1.052.764,1.052.764.556-1.529Z" fill="#061b2f"/><path d="M264.819,510.353l.4,1.237.4,1.237,1.052-.764,1.052-.764-1.258-1.074Z" fill="#061b2f"/><path d="M251.2,510.353l.4,1.237.4,1.237,1.052-.764,1.052-.764-1.258-1.074Z" fill="#061b2f"/><path d="M260.918,506.351l-1.052-.764-1.052-.764-.556,1.528.556,1.529,1.052-.764Z" fill="#061b2f"/><path d="M292.051,510.353l-.449-1.563-1.348-.91-.4,1.237-.4,1.236h2.6l.4,1.236.4,1.237,1.052-.764,1.052-.764-1.258-1.074Z" fill="#061b2f"/><path d="M286.85,510.353l-.4-1.236-.4-1.237-1.41.865-.387,1.608h2.6Z" fill="#061b2f"/><path d="M290.254,504.823l1.41-.865.387-1.608h-2.6l.4,1.237Z" fill="#061b2f"/><path d="M292.051,502.35l1.663.172,1.244-1.116-1.052-.764-1.052-.764-.4,1.236Z" fill="#061b2f"/><path d="M299.662,507.879l1.052-.764,1.052-.764-1.052-.764-1.052-.764-.556,1.528Z" fill="#061b2f"/><path d="M284.249,502.35l.449,1.563,1.348.91.4-1.236.4-1.237h-2.6Z" fill="#061b2f"/><path d="M299.662,507.879l-1.41.865-.387,1.608-1.663-.172-1.244,1.116,1.052.764,1.052.764.4-1.237.4-1.236h2.6l-.4-1.237Z" fill="#061b2f"/><path d="M290.254,507.879l-1.052-.764-1.052-.764-1.052.764-1.052.764.4,1.237.4,1.236h2.6l.4-1.236Z" fill="#f0a835"/><path d="M292.051,510.353h-2.6l-.4,1.237-.4,1.237,1.052.764,1.052.764,1.052-.764,1.052-.764-.4-1.237Z" fill="#f0a835"/><path d="M297.062,512.826l-1.052-.764-1.052-.764-1.052.764-1.052.764.4,1.237.4,1.237h2.6l.4-1.237Z" fill="#0076b4"/><path d="M297.865,510.353l-.4,1.236-.4,1.237,1.052.764,1.052.764,1.052-.764,1.052-.764-.4-1.237-.4-1.236h-2.6Z" fill="#f0a835"/><path d="M286.046,504.823l1.052.764,1.052.764,1.052-.764,1.052-.764-.4-1.236-.4-1.237h-2.6l-.4,1.237Z" fill="#f0a835"/><path d="M292.051,502.35l.4-1.237.4-1.236-1.052-.764-1.052-.764-1.052.764-1.052.764.4,1.236.4,1.237h2.6Z" fill="#f0a835"/><path d="M297.865,502.35h2.6l.4-1.237.4-1.236-1.052-.764-1.052-.764-1.052.764-1.052.764.4,1.236Z" fill="#f0a835"/><path d="M292.854,499.876l1.052.764,1.052.764,1.052-.764,1.052-.764-.4-1.237-.4-1.237h-2.6l-.4,1.237Z" fill="#0076b4"/><path d="M292.051,502.35l-.387,1.608-1.41.865.556,1.528-.556,1.528,1.348.91.449,1.564,1.649-.129,1.258,1.073,1.244-1.116,1.663.172.387-1.608,1.41-.866-.556-1.528.556-1.528-1.348-.91-.449-1.563-1.649.128-1.258-1.073-1.245,1.116Zm4.87,3.363a2.065,2.065,0,1,1-2.581-1.262A2.032,2.032,0,0,1,296.921,505.713Z" fill="#cc5a19"/><path d="M292.995,506.989a2.065,2.065,0,1,0,1.345-2.538A2.032,2.032,0,0,0,292.995,506.989Z" fill="#faf8dc"/><path d="M276.638,507.879l-1.052-.764-1.052-.764-1.052.764-1.052.764.4,1.237.4,1.236h2.6l.4-1.236Z" fill="#f0a835"/><path d="M278.435,510.353h-2.6l-.4,1.237-.4,1.237,1.052.764,1.052.764,1.052-.764,1.052-.764-.4-1.237Z" fill="#f0a835"/><path d="M283.446,512.826l-1.052-.764-1.052-.764-1.052.764-1.052.764.4,1.237.4,1.237h2.6l.4-1.237Z" fill="#0076b4"/><path d="M285.55,510.353h-1.3l-.4,1.237-.4,1.237,1.052.764,1.052.764,1.052-.764,1.052-.764-.4-1.237-.4-1.237h-1.3Z" fill="#f0a835"/><path d="M272.43,504.823l1.052.764,1.052.764,1.052-.764,1.052-.764-.4-1.237-.4-1.237h-2.6l-.4,1.237Z" fill="#f0a835"/><path d="M278.435,502.349l.4-1.236.4-1.236-1.052-.764-1.052-.764-1.052.764-1.052.764.4,1.237.4,1.236h2.6Z" fill="#f0a835"/><path d="M284.249,502.35h2.6l.4-1.237.4-1.236-1.052-.764-1.052-.764-1.052.764-1.052.764.4,1.236Z" fill="#f0a835"/><path d="M279.238,499.876l1.052.764,1.052.764,1.052-.764,1.052-.764-.4-1.237-.4-1.237h-2.6l-.4,1.237Z" fill="#0076b4"/><path d="M276.638,504.823l.556,1.528-.556,1.528,1.348.91.449,1.564,1.649-.129,1.258,1.073,1.244-1.116,1.663.172.387-1.609,1.41-.865-.556-1.528.556-1.528-1.348-.91-.449-1.563-1.649.128-1.258-1.073-1.244,1.116-1.663-.172-.387,1.609Zm6.667.89a2.065,2.065,0,1,1-2.58-1.262A2.032,2.032,0,0,1,283.3,505.713Z" fill="#fff"/><path d="M279.379,506.989a2.065,2.065,0,1,0,1.346-2.538A2.032,2.032,0,0,0,279.379,506.989Z" fill="#061b2f"/><path d="M263.022,507.879l-1.052-.764-1.052-.764-1.052.764-1.052.764.4,1.237.4,1.236h2.6l.4-1.236Z" fill="#f0a835"/><path d="M264.819,510.353h-2.6l-.4,1.237-.4,1.237,1.052.764,1.052.764,1.052-.764,1.052-.764-.4-1.237Z" fill="#f0a835"/><path d="M267.726,511.3l-1.052.764-1.052.764.4,1.237.4,1.237h2.6l.4-1.237.4-1.237-1.052-.764Z" fill="#0076b4"/><path d="M270.634,510.353l-.4,1.237-.4,1.237,1.052.764,1.052.764,1.052-.764,1.052-.764-.4-1.237-.4-1.237h-2.6Z" fill="#f0a835"/><path d="M258.815,504.823l1.052.764,1.052.764,1.052-.764,1.052-.764-.4-1.237-.4-1.237h-2.6l-.4,1.237Z" fill="#f0a835"/><path d="M264.819,502.349l.4-1.236.4-1.237-1.052-.764-1.052-.764-1.052.764-1.052.764.4,1.237.4,1.236h2.6Z" fill="#f0a835"/><path d="M270.634,502.349h2.6l.4-1.236.4-1.237-1.052-.764-1.052-.764-1.052.764-1.052.764.4,1.237Z" fill="#f0a835"/><path d="M265.622,499.876l1.052.764,1.052.764,1.052-.764,1.052-.764-.4-1.237-.4-1.236h-2.6l-.4,1.236Z" fill="#0076b4"/><path d="M264.819,502.349l-.387,1.608-1.41.866.556,1.528-.556,1.528,1.348.91.449,1.564,1.649-.129,1.258,1.073,1.245-1.116,1.663.172.386-1.609,1.41-.865-.556-1.528.556-1.528-1.348-.91-.449-1.564-1.649.129-1.258-1.073-1.244,1.116Zm4.87,3.364a2.065,2.065,0,1,1-2.58-1.262A2.032,2.032,0,0,1,269.689,505.713Z" fill="#0076b4"/><path d="M265.763,506.989a2.065,2.065,0,1,0,1.346-2.538A2.033,2.033,0,0,0,265.763,506.989Z" fill="#061b2f"/><path d="M256.214,512.826l-1.052-.764-1.052-.764-1.052.764-1.052.764.4,1.237.4,1.237h2.6l.4-1.237Z" fill="#0076b4"/><path d="M257.018,510.353l-.4,1.237-.4,1.237,1.052.764,1.052.764,1.052-.764,1.052-.764-.4-1.237-.4-1.237h-2.6Z" fill="#f0a835"/><path d="M257.018,502.349h2.6l.4-1.236.4-1.237-1.052-.764-1.052-.764-1.052.764-1.052.764.4,1.237Z" fill="#f0a835"/><path d="M252.006,499.876l1.052.764,1.052.764,1.052-.764,1.052-.764-.4-1.237-.4-1.236h-2.6l-.4,1.236Z" fill="#0076b4"/><path d="M251.2,502.349l-.387,1.608-1.41.866.556,1.528-.556,1.528,1.348.91.449,1.564,1.649-.129,1.258,1.073,1.245-1.116,1.663.172.387-1.609,1.41-.865-.557-1.528.557-1.528-1.349-.91-.448-1.564-1.649.129L254.11,501.4l-1.244,1.116Zm4.87,3.364a2.065,2.065,0,1,1-2.58-1.262A2.031,2.031,0,0,1,256.073,505.713Z" fill="#cc5a19"/><path d="M252.147,506.989a2.065,2.065,0,1,0,1.346-2.538A2.033,2.033,0,0,0,252.147,506.989Z" fill="#fff"/><path d="M255.162,512.061l1.052.764.4-1.237" fill="#061b2f"/><path d="M251.6,511.589l.4,1.237,1.052-.764" fill="#061b2f"/><path d="M253.059,512.061l-1.052.764.4,1.237.4,1.237h2.6l.4-1.237.4-1.237-1.052-.764" fill="#0076b4"/><path d="M256.616,511.589l-.4,1.237,1.052.764,1.052.764,1.052-.764,1.052-.764" fill="#f0a835"/><path d="M298.727,515.3h-2.469l.4-1.237.4-1.237,1.052.764,1.052.764,1.052-.764,1.052-.764-.4-1.236-.4-1.237h2.6l-.4,1.237-.4,1.236,1.052.764,1.052.764,1.052-.764,1.052-.764.4,1.237.4,1.237h-8.546Z" fill="#061b2f"/><path d="M312.343,515.3h-2.47l.4-1.237.4-1.236-1.052-.764-1.052-.764,1.244-1.116,1.663.172-.4,1.236-.4,1.236,1.052.764,1.052.764,1.052-.764,1.052-.764-.4-1.237-.4-1.236h2.6l-.4,1.236-.4,1.237,1.052.764,1.052.764,1.052-.764,1.052-.764.4,1.237.4,1.236h-8.546Z" fill="#061b2f"/><path d="M338.713,510.353l-1.663-.172-1.244,1.116,1.052.764,1.052.764.4-1.237Z" fill="#061b2f"/><path d="M325.959,515.3h-2.47l.4-1.236.4-1.237,1.052.764,1.052.764,1.052-.764,1.052-.764-.4-1.237-.4-1.236h2.6l-.4,1.236-.4,1.237,1.052.764,1.052.764,1.052-.764,1.052-.764.4,1.237.4,1.236h-8.546Z" fill="#061b2f"/><path d="M332.036,497.4h2.469l-.4,1.237-.4,1.237-1.052-.764-1.052-.764-1.052.764-1.052.764.4,1.236.4,1.237h-2.6l.4-1.237.4-1.236-1.052-.764-1.052-.764-1.052.764-1.052.764-.4-1.237-.4-1.237h8.546Z" fill="#061b2f"/><path d="M318.42,497.4h2.47l-.4,1.237-.4,1.236,1.052.764,1.052.764-1.244,1.116-1.663-.172.4-1.236.4-1.236-1.052-.764-1.052-.764-1.052.764-1.052.764.4,1.237.4,1.236h-2.6l.4-1.236.4-1.237-1.052-.764-1.052-.764-1.052.764-1.052.764-.4-1.237-.4-1.236h8.546Z" fill="#061b2f"/><path d="M304.8,497.4h2.47l-.4,1.236-.4,1.237-1.052-.764-1.052-.764-1.052.764-1.052.764.4,1.237.4,1.236h-2.6l.4-1.236.4-1.237-1.052-.764-1.052-.764-1.052.764-1.052.764-.4-1.237-.4-1.236H304.8Z" fill="#061b2f"/><path d="M305.666,510.353l.4,1.237.4,1.236,1.052-.764,1.052-.764-1.258-1.074Z" fill="#061b2f"/><path d="M319.282,510.353l-.449-1.563-1.348-.91-.4,1.237-.4,1.237h2.6l.4,1.236.4,1.237,1.052-.764,1.052-.764-1.258-1.074Z" fill="#061b2f"/><path d="M313.278,507.88l-1.41.865-.387,1.608h2.6l-.4-1.237Z" fill="#061b2f"/><path d="M325.1,510.353l-1.663-.172-1.244,1.116,1.052.764,1.052.764.4-1.237Z" fill="#061b2f"/><path d="M326.893,507.88l-1.41.865-.387,1.608h2.6l-.4-1.237Z" fill="#061b2f"/><path d="M332.9,510.353l-.448-1.563-1.348-.91-.4,1.237-.4,1.237h2.6Z" fill="#061b2f"/><path d="M332.9,510.353l.4,1.236.4,1.237,1.052-.764,1.052-.764-1.258-1.074Z" fill="#061b2f"/><path d="M317.485,504.823l1.41-.865.387-1.608h-2.6l.4,1.236Z" fill="#061b2f"/><path d="M319.282,502.35l1.663.172,1.244-1.116-1.052-.764-1.052-.764-.4,1.237Z" fill="#061b2f"/><path d="M311.481,502.35l.449,1.563,1.348.91.4-1.237.4-1.236h-2.6Z" fill="#061b2f"/><path d="M308.574,501.4l-1.052-.764-1.052-.764-.4,1.237-.4,1.237,1.663.172,1.245-1.116,1.258,1.074,1.649-.129-.4-1.237-.4-1.237-1.052.764Z" fill="#061b2f"/><path d="M332.9,502.35l1.663.172,1.245-1.116-1.052-.764-1.052-.764-.4,1.237Z" fill="#061b2f"/><path d="M301.766,506.351l-1.052-.764-1.052-.764-.556,1.528.556,1.528,1.052-.764,1.052-.764,1.052.764,1.052.764.556-1.528-.556-1.528-1.052.764Z" fill="#061b2f"/><path d="M331.1,504.823l1.41-.865.387-1.608h-2.6l.4,1.236Z" fill="#061b2f"/><path d="M326.893,504.823l-.556,1.529.556,1.528,1.052-.764,1.052-.764-1.052-.764Z" fill="#061b2f"/><path d="M325.1,502.35l.449,1.563,1.348.91.4-1.237.4-1.236h-2.6Z" fill="#061b2f"/><path d="M317.485,507.88l.556-1.528-.556-1.529-1.052.764-1.052.764,1.052.764Z" fill="#061b2f"/><path d="M313.278,507.88l1.052-.764,1.052-.764-1.052-.764-1.052-.764-.556,1.529Z" fill="#061b2f"/><path d="M325.1,502.35l-.4-1.237-.4-1.237-1.052.764-1.052.764,1.258,1.074Z" fill="#061b2f"/><path d="M338.712,502.35l-.4-1.237-.4-1.237-1.052.764-1.052.764,1.258,1.074Z" fill="#061b2f"/><path d="M329,506.351l1.052.764,1.052.764.556-1.528-.556-1.529-1.052.764Z" fill="#061b2f"/><path d="M303.066,502.35l.4,1.236.4,1.237,1.41-.865.387-1.608h-2.6Z" fill="#061b2f"/><path d="M299.662,507.88l-1.41.865-.387,1.608h2.6l-.4-1.237Z" fill="#061b2f"/><path d="M305.666,510.353l-.449-1.563-1.348-.91-.4,1.236-.4,1.237h2.6Z" fill="#061b2f"/><path d="M299.662,504.823l1.052.764,1.052.764,1.052-.764,1.052-.764-.4-1.237-.4-1.236h-2.6l-.4,1.236Z" fill="#f0a835"/><path d="M303.87,507.88l-1.052-.764-1.052-.764-1.052.764-1.052.764.4,1.236.4,1.237h2.6l.4-1.237Z" fill="#f0a835"/><path d="M313.278,504.823l1.052.764,1.052.764,1.052-.764,1.052-.764-.4-1.237-.4-1.236h-2.6l-.4,1.236Z" fill="#f0a835"/><path d="M311.481,502.35h2.6l.4-1.237.4-1.237-1.052-.764-1.052-.764-1.052.764-1.052.764.4,1.237Z" fill="#f0a835"/><path d="M306.47,499.877l1.052.764,1.052.764,1.052-.764,1.052-.764-.4-1.237-.4-1.237h-2.6l-.4,1.237Z" fill="#0076b4"/><path d="M304.366,502.35h1.3l.4-1.237.4-1.237-1.052-.764-1.052-.764-1.052.764-1.052.764.4,1.237.4,1.237h1.3Z" fill="#f0a835"/><path d="M317.485,507.88l-1.052-.764-1.052-.764-1.052.764-1.052.764.4,1.237.4,1.237h2.6l.4-1.237Z" fill="#f0a835"/><path d="M311.481,510.353l-.4,1.236-.4,1.236,1.052.764,1.052.764,1.052-.764,1.052-.764-.4-1.237-.4-1.236h-2.6Z" fill="#f0a835"/><path d="M305.666,510.353h-2.6l-.4,1.237-.4,1.236,1.052.764,1.052.764,1.052-.764,1.052-.764-.4-1.236Z" fill="#f0a835"/><path d="M310.677,512.826l-1.052-.764-1.052-.764-1.052.764-1.052.764.4,1.237.4,1.237h2.6l.4-1.237Z" fill="#0076b4"/><path d="M313.278,507.88l-.556-1.529.556-1.528-1.348-.91-.449-1.563-1.649.129-1.258-1.074-1.245,1.116-1.663-.171-.387,1.608-1.409.865.556,1.528-.556,1.529,1.348.91.448,1.563,1.649-.129,1.259,1.074,1.244-1.117,1.663.172.387-1.608Zm-6.667-.891a2.065,2.065,0,1,1,2.58,1.262A2.032,2.032,0,0,1,306.611,506.989Z" fill="#fff"/><path d="M310.536,505.713a2.065,2.065,0,1,0-1.345,2.538A2.032,2.032,0,0,0,310.536,505.713Z" fill="#061b2f"/><path d="M326.893,504.823l1.052.764,1.052.764,1.052-.764,1.052-.764-.4-1.237-.4-1.236h-2.6l-.4,1.236Z" fill="#f0a835"/><path d="M325.1,502.35h2.6l.4-1.237.4-1.237-1.052-.764-1.052-.764-1.052.764-1.052.764.4,1.237Z" fill="#f0a835"/><path d="M322.189,501.405l1.052-.764,1.052-.764-.4-1.237-.4-1.237h-2.6l-.4,1.237-.4,1.237,1.052.764Z" fill="#0076b4"/><path d="M319.282,502.35l.4-1.237.4-1.237-1.052-.764-1.052-.764-1.052.764-1.052.764.4,1.237.4,1.237h2.6Z" fill="#f0a835"/><path d="M331.1,507.88l-1.052-.764L329,506.351l-1.052.764-1.052.764.4,1.237.4,1.237h2.6l.4-1.237Z" fill="#f0a835"/><path d="M325.1,510.353l-.4,1.236-.4,1.237,1.052.764,1.052.764,1.052-.764,1.052-.764-.4-1.237-.4-1.236h-2.6Z" fill="#f0a835"/><path d="M319.282,510.353h-2.6l-.4,1.236-.4,1.237,1.052.764,1.052.764,1.052-.764,1.052-.764-.4-1.237Z" fill="#f0a835"/><path d="M324.293,512.826l-1.052-.764-1.052-.764-1.052.764-1.052.764.4,1.237.4,1.236h2.6l.4-1.236Z" fill="#0076b4"/><path d="M325.1,510.353l.387-1.608,1.409-.865-.555-1.529.555-1.528-1.348-.91-.448-1.563-1.649.129-1.259-1.074-1.244,1.116-1.663-.171-.387,1.608-1.41.865.556,1.528-.556,1.529,1.349.91.448,1.563,1.649-.129,1.258,1.074,1.245-1.117Zm-4.87-3.364a2.065,2.065,0,1,1,2.58,1.262A2.032,2.032,0,0,1,320.227,506.989Z" fill="#0076b4"/><path d="M324.152,505.713a2.065,2.065,0,1,0-1.345,2.538A2.032,2.032,0,0,0,324.152,505.713Z" fill="#061b2f"/><path d="M333.7,499.877l1.052.764,1.052.764,1.052-.764,1.052-.764-.4-1.237-.4-1.237h-2.6l-.4,1.237Z" fill="#0076b4"/><path d="M332.9,502.35l.4-1.237.4-1.237-1.052-.764-1.052-.764-1.052.764-1.052.764.4,1.237.4,1.237h2.6Z" fill="#f0a835"/><path d="M332.9,510.353h-2.6l-.4,1.236-.4,1.237,1.052.764,1.052.764,1.052-.764,1.052-.764-.4-1.237Z" fill="#f0a835"/><path d="M337.909,512.826l-1.052-.764-1.052-.764-1.052.764-1.052.764.4,1.237.4,1.236h2.6l.4-1.236Z" fill="#0076b4"/><path d="M338.713,510.353l.386-1.608,1.41-.865-.556-1.529.556-1.528-1.348-.91-.449-1.563-1.648.129L335.8,501.4l-1.244,1.116-1.663-.171-.387,1.608-1.41.865.556,1.528-.556,1.529,1.348.91.449,1.563,1.649-.129L335.8,511.3l1.245-1.117Zm-4.871-3.364a2.065,2.065,0,1,1,2.581,1.262A2.033,2.033,0,0,1,333.842,506.989Z" fill="#cc5a19"/><path d="M337.768,505.713a2.065,2.065,0,1,0-1.345,2.538A2.032,2.032,0,0,0,337.768,505.713Z" fill="#fff"/><path d="M334.753,500.641l-1.052-.764-.4,1.237" fill="#061b2f"/><path d="M338.311,501.113l-.4-1.237-1.052.764" fill="#061b2f"/><path d="M336.857,500.641l1.052-.764-.4-1.237-.4-1.237h-2.6l-.4,1.237-.4,1.237,1.052.764" fill="#0076b4"/><path d="M333.3,501.113l.4-1.237-1.052-.764-1.052-.764-1.052.764-1.052.764" fill="#f0a835"/></g></svg>